<svg xmlns:xlink="http://www.w3.org/1999/xlink" xmlns="http://www.w3.org/2000/svg" xml:space="preserve" viewBox="0 0 512 512" version="1.1" style="enable-background:new 0 0 512 512;" id="Layer_1"><style type="text/css">
	.st0{fill:#EF3F38;}
	.st1{fill-rule:evenodd;clip-rule:evenodd;fill:#FFFFFF;}
</style><g><path d="M512,397.1c0,63.5-51.5,114.9-114.9,114.9H114.9C51.5,512,0,460.5,0,397.1V114.9C0,51.5,51.5,0,114.9,0h282.2   C460.5,0,512,51.5,512,114.9V397.1z" class="st0"></path><path d="M142.1,350.6c-10.8-3.6-18.1-10.7-22-21.4c-9.5-26.2-12.3-135.8,6-157.4c6.3-7.4,14.4-11.7,24-12.8   c49.4-5.3,202.3-4.6,219.9,1.8c10.3,3.7,17.6,10.5,21.6,20.8c10.4,27.1,10.8,125.7-1.4,151.8c-3.3,7.1-8.7,12.1-15.5,15.6   C356.3,358.7,166.4,358.6,142.1,350.6z M220.7,299.2c29.7-15.4,59.2-30.7,89.1-46.2c-29.9-15.6-59.4-31-89.1-46.5   C220.7,237.5,220.7,268.2,220.7,299.2z" class="st1"></path></g></svg>